<svg xmlns="http://www.w3.org/2000/svg" viewBox="0 0 432 288"><defs><style>.cls-1,.cls-5{fill:#fff;}.cls-1{stroke:#231f20;}.cls-2{fill:none;}.cls-3{fill:#c74327;}.cls-4{fill:#231f20;}.cls-6{fill:#f6ca36;}</style></defs><title>Dig&amp;amp;Dash</title><g id="Crop_Marks" data-name="Crop Marks"><rect class="cls-1" x="18.6" y="48.15" width="394.25" height="192.98"/><path class="cls-2" d="M198.49,124.73a7.78,7.78,0,0,0-.23,3.61,8.44,8.44,0,0,0,1.35,3.24,17.93,17.93,0,0,0,3,3.34l4.3,3.75q4.65-4.17,5.78-6.9a10.21,10.21,0,0,0,.63-5.69,9.36,9.36,0,0,0-1.1-3.17v1.82Z"/><path class="cls-2" d="M211,162.66a6.69,6.69,0,0,1,3,.74,10.28,10.28,0,0,1,2.21,1.7,8.18,8.18,0,0,1,1.63,2.21,9.21,9.21,0,0,1,.88,5.19,18.94,18.94,0,0,0,4.35-6.47l-17.93-16.7q-5.82,5.25-7.5,9.16a13,13,0,0,0-1.1,7.36,12.16,12.16,0,0,0,.55,2.09,60.7,60.7,0,0,1,7.69-3.57C206.79,163.64,208.9,162.66,211,162.66Z"/><path class="cls-2" d="M204.29,198.57a25.32,25.32,0,0,0-4.8,2.94c-1.25,1.1-1.92,3.05-2.4,4.88-.29,1.22-.58,3.18.19,3.79,1,1,3.46-1,4.71-1.59,1.06-.61,2.78-1.59,4.51-2.69.67-.49,1.44-1.1,2.21-1.71-.19-2.93-.39-4.15-.48-7.33C206.89,197.35,205.64,198,204.29,198.57Z"/><path class="cls-2" d="M151.39,94.19c-.13,3.12-.27,11.29-.27,14.89.27,7.44.14,15.37.4,22.81.14,4.08,0,9.84.14,13.93.27,7.68-.27,13.69-.27,21.13,0,5,0,8.88-.13,15.13,0,0,13.29-12.49,19.46-40.59a30.61,30.61,0,0,0,.81-7C171.53,118,158.91,99.23,151.39,94.19Z"/><path class="cls-2" d="M241.24,93.76a10.14,10.14,0,0,0-11.79-.08,12.36,12.36,0,0,0-4.1,5,15.7,15.7,0,0,0-1.47,6.75,16.3,16.3,0,0,0,1.4,6.79,11.81,11.81,0,0,0,4,4.91,10,10,0,0,0,5.9,1.81,10.49,10.49,0,0,0,6.05-1.85,12.35,12.35,0,0,0,4.2-5,15.31,15.31,0,0,0,1.51-6.75,14.81,14.81,0,0,0-1.51-6.53A13.08,13.08,0,0,0,241.24,93.76Z"/><path class="cls-3" d="M206.73,112V85.08H194v7h5.61v21.48a18.22,18.22,0,0,1,4.13-1.23A17.82,17.82,0,0,1,206.73,112Z"/><path class="cls-3" d="M202.86,76.44a3.91,3.91,0,0,0,3-1.39,5.07,5.07,0,0,0,0-6.68,3.92,3.92,0,0,0-3-1.36,3.83,3.83,0,0,0-3,1.4,5.1,5.1,0,0,0,0,6.64A3.82,3.82,0,0,0,202.86,76.44Z"/><path class="cls-3" d="M246.85,90.81a21.48,21.48,0,0,0-6-4.71,14.68,14.68,0,0,0-6.65-1.55,15.32,15.32,0,0,0-9,2.87,19.66,19.66,0,0,0-6.41,7.7,23.6,23.6,0,0,0-2.34,10.44,22.93,22.93,0,0,0,2.23,10.13,19,19,0,0,0,6.23,7.42,15.24,15.24,0,0,0,9,2.79,17.14,17.14,0,0,0,13-6.49v3.7q0,6-3,9.69a10.19,10.19,0,0,1-8.34,3.66,14.23,14.23,0,0,1-5.41-1,19.17,19.17,0,0,1-4.94-3l-4.55,5.62a21.5,21.5,0,0,0,14.7,5.36q9.09,0,13.82-5.64t4.74-16V92.06h6.49v-7h-13.5Zm-1.44,21.28a12.35,12.35,0,0,1-4.2,5,10.49,10.49,0,0,1-6.05,1.85,10,10,0,0,1-5.9-1.81,11.81,11.81,0,0,1-4-4.91,16.3,16.3,0,0,1-1.4-6.79,15.7,15.7,0,0,1,1.47-6.75,12.36,12.36,0,0,1,4.1-5,10.14,10.14,0,0,1,11.79.08,13.08,13.08,0,0,1,4.17,5,14.81,14.81,0,0,1,1.51,6.53A15.31,15.31,0,0,1,245.41,112.09Z"/><path class="cls-3" d="M178.63,101.17a168,168,0,0,0-9.8-17.76A57.24,57.24,0,0,0,160,73.08,43.09,43.09,0,0,0,156.21,70a47.94,47.94,0,0,0-7.52-4.81c-6.58-4.08-9.8-3.36-15.57-3.84-.54,6-1.61,18.49-1.88,28.58,2.28.72,4.43.24,6.45,1.2.13,11.77.4,24.25.67,36.26.13,3.84.13,7.92.13,11.77,0,14.4-.54,28.33-.8,43q-.21,11.16-.41,22.33c0,3.6,0,8.17.27,11.77a91.45,91.45,0,0,0,.67,9.37,39.44,39.44,0,0,0,4.3-2.41c1.61-1.2,5-3.36,6.58-5,3.76-4.08,7-6.48,10.07-10.57a121.07,121.07,0,0,0,18.93-34.09c5.37-14.41,8.72-26.9,9.26-41.07.13-5.52-1.75-11.29-3-15.85A67.09,67.09,0,0,0,178.63,101.17Zm-7,41.79c-6.17,28.09-19.47,40.58-19.47,40.58.14-6.24.14-10.08.14-15.13,0-7.44.54-13.45.27-21.13-.14-4.08,0-9.84-.14-13.93-.27-7.44-.13-15.36-.4-22.81,0-3.6.13-11.77.27-14.89,7.52,5,20.14,23.77,20.14,40.34A30.63,30.63,0,0,1,171.65,143Z"/><path class="cls-4" d="M238,178.33c1,.57,2,1.08,2.9,1.51l3.05-5.51c0-.27,0-.53-.08-.8C242.43,173.53,239.47,175.82,238,178.33Z"/><path class="cls-4" d="M208.81,180.37c.19-3.17-.77-3.05-2.79-2.44-2.91,1-5.13,2.64-8.16,4.28a18.44,18.44,0,0,0,8,2.56l2.76-1.59A24.27,24.27,0,0,0,208.81,180.37Z"/><path class="cls-4" d="M233.16,163.33a50.9,50.9,0,0,0,3.29-15.93L227.8,147a41.71,41.71,0,0,1-1.5,10.17l-14.37-13.73q11.17-9.16,9.52-19a14.43,14.43,0,0,0-6-9.68,14.17,14.17,0,0,0-8.72-2.69v5.76h5.46v5.12a9.36,9.36,0,0,1,1.1,3.17,10.21,10.21,0,0,1-.63,5.69q-1.12,2.73-5.78,6.9l-4.3-3.75a17.93,17.93,0,0,1-3-3.34,8.44,8.44,0,0,1-1.35-3.24,7.78,7.78,0,0,1,.23-3.61H194v-6.94h5.61v-4.25A15.57,15.57,0,0,0,193,119a15.12,15.12,0,0,0-2.79,11.65,16.28,16.28,0,0,0,2.55,6.2,41.4,41.4,0,0,0,7.35,7.69q-7.11,5.28-10.13,11.14a19.19,19.19,0,0,0-2,12.27,19.94,19.94,0,0,0,4.29,9.48c-.49-2.19-.94-4.34-1.12-5.56a43.33,43.33,0,0,1,5.94-3.88,12.16,12.16,0,0,1-.55-2.09,13,13,0,0,1,1.1-7.36q1.68-3.92,7.5-9.16L223.06,166a18.94,18.94,0,0,1-4.35,6.47c0,.52-.07,1-.11,1.52q-.34,4.18-.5,8.51a22.45,22.45,0,0,0,3.65-2.16,28.34,28.34,0,0,0,7.47-8.53l.13.11a29.54,29.54,0,0,1,5.31-7.23C234.16,164.26,233.65,163.81,233.16,163.33Z"/><path class="cls-4" d="M243.85,173.53c0,.27.05.53.08.8l1.21-2.19a47.25,47.25,0,0,1-10.48-7.42,29.54,29.54,0,0,0-5.31,7.23,54.74,54.74,0,0,0,8.63,6.38C239.47,175.82,242.43,173.53,243.85,173.53Z"/><circle class="cls-5" cx="196.38" cy="132.85" r="1.36"/><circle class="cls-5" cx="201.88" cy="134.97" r="1.36"/><circle class="cls-5" cx="198.99" cy="139.5" r="1.88"/><circle class="cls-5" cx="209.06" cy="145.28" r="2"/><circle class="cls-5" cx="204.23" cy="143.28" r="1.36"/><circle class="cls-5" cx="200.38" cy="147.71" r="1.92"/><circle class="cls-5" cx="200.38" cy="153.16" r="1.36"/><circle class="cls-5" cx="212.62" cy="136.01" r="1.36"/><circle class="cls-5" cx="216.28" cy="126.38" r="2.03"/><circle class="cls-5" cx="191.19" cy="132.85" r="1.36"/><circle class="cls-5" cx="192.03" cy="125.67" r="1.36"/><circle class="cls-5" cx="196.46" cy="117.5" r="1.36"/><circle class="cls-5" cx="218.81" cy="134.34" r="1.36"/><circle class="cls-5" cx="212.88" cy="121.82" r="1.36"/><path class="cls-3" d="M194,117.79v6.94h4.45a7.44,7.44,0,0,1,6.06-5.37,7,7,0,0,1,5.66,1.31,7.46,7.46,0,0,1,2,2.24v-5.12h-5.46V112a17.82,17.82,0,0,0-2.95.28,18.22,18.22,0,0,0-4.13,1.23v4.25Z"/><path class="cls-3" d="M210.21,120.67a7,7,0,0,0-5.66-1.31,7.44,7.44,0,0,0-6.06,5.37h13.7v-1.82A7.46,7.46,0,0,0,210.21,120.67Z"/><circle class="cls-5" cx="216.4" cy="117.87" r="1.36"/><circle class="cls-5" cx="209.59" cy="114.9" r="1.36"/><circle class="cls-5" cx="215.03" cy="149.63" r="1.36"/><circle class="cls-5" cx="221.12" cy="160.91" r="1.36"/><circle class="cls-5" cx="214.02" cy="156.22" r="1.71"/><circle class="cls-5" cx="220.18" cy="155.57" r="1.36"/><circle class="cls-5" cx="229.1" cy="156.53" r="1.75"/><circle class="cls-5" cx="193.84" cy="151.49" r="1.36"/><circle class="cls-5" cx="234.24" cy="154.21" r="1.36"/><circle class="cls-5" cx="230.85" cy="148.27" r="1.36"/><circle class="cls-5" cx="230.68" cy="167.02" r="1.89"/><circle class="cls-5" cx="227.36" cy="162.3" r="1.36"/><circle class="cls-5" cx="194.04" cy="158.27" r="1.36"/><circle class="cls-5" cx="227.36" cy="172.73" r="1.36"/><circle class="cls-5" cx="221.17" cy="174.75" r="1.79"/><circle class="cls-5" cx="232.04" cy="173.53" r="1.36"/><path class="cls-6" d="M295.89,111.31l31-49.06H304.68l-32.12,53.66,13.94,4.28L258.93,166l9.09,1.86-15.94,28.25c.59.53,1.15,1,1.7,1.56l37.55-35.71L278,159.76l33.36-45.21Z"/><path class="cls-6" d="M295.89,111.31l31-49.06H304.68l-32.12,53.66,13.94,4.28L258.93,166l9.09,1.86-15.94,28.25c.59.53,1.15,1,1.7,1.56l37.55-35.71L278,159.76l33.36-45.21Z"/><path class="cls-3" d="M252.08,196.08c-.59-.53-1.2-1.07-1.8-1.66-1.72-1.46-3.55-2.93-5.37-4.27-3.27-2.69-8.17-6.84-7.78-9.65a6.4,6.4,0,0,1,.85-2.17,54.74,54.74,0,0,1-8.63-6.38,32.84,32.84,0,0,0-2.5,6.1,17.11,17.11,0,0,0-.57,4.52,14.34,14.34,0,0,0,3.94,10.26,96,96,0,0,0,9.6,8.31c2.88,2.2,8.45,5.86,6.81,7.94-1.24,1.59-3.64,2.32-5.76,2.32s-3.93-.73-4.6-1.71c-1.83-2.2-1.35-4-.77-6.72a43.81,43.81,0,0,0-9.8-1.1,24.89,24.89,0,0,0-1.15,7.7,14.68,14.68,0,0,0,.86,5.62,17.6,17.6,0,0,0,6.82,7.57c2.11,1.22,7.11,1.59,9.8,1.34a16.7,16.7,0,0,0,7.2-2.07c4.61-2.57,8.74-9,8.74-15.27,0-4.5-1.84-6.89-4.19-9.12l-5.56,5.28Z"/><path class="cls-6" d="M248.22,202.92l5.56-5.28c-.55-.52-1.11-1-1.7-1.56Z"/><path class="cls-3" d="M243.93,174.33c.39,3.27,0,6.54,0,9.71,1.05,0,2.78.24,4.7.24a15,15,0,0,0,5.19-.73c.19-5.74.86-13.68-.87-18.32a7.7,7.7,0,0,0-7.78-5.38c-4,0-7.55,2-10.53,4.87a47.25,47.25,0,0,0,10.48,7.42Z"/><circle class="cls-5" cx="236.71" cy="170.59" r="1.36"/><circle class="cls-5" cx="242.55" cy="172.89" r="1.36"/><circle class="cls-5" cx="192.03" cy="165.14" r="1.89"/><circle class="cls-5" cx="191.42" cy="172" r="1.36"/><path class="cls-3" d="M220.9,216.9a63.05,63.05,0,0,1-1.15-6.48,133.63,133.63,0,0,1-1.65-27.89q.15-4.32.5-8.51c0-.49.08-1,.11-1.52a9.21,9.21,0,0,0-.88-5.19,8.18,8.18,0,0,0-1.63-2.21,10.28,10.28,0,0,0-2.21-1.7,6.69,6.69,0,0,0-3-.74c-2.11,0-4.22,1-6.24,1.71a60.7,60.7,0,0,0-7.69,3.57,43.33,43.33,0,0,0-5.94,3.88c.18,1.22.63,3.37,1.12,5.56.79,3.52,1.66,7.15,1.66,7.15l2.79-1.71c.4-.2.78-.41,1.15-.61,3-1.64,5.25-3.3,8.16-4.28,2-.61,3-.73,2.79,2.44a24.27,24.27,0,0,1-.2,2.81l-2.76,1.59-.21.12c-2.12,1.22-4.32,2.2-6.24,3.54-3.27,2.33-7.11,3.79-9.22,7.94a27.16,27.16,0,0,0-3.56,14.78A19.64,19.64,0,0,0,190.85,222,5.11,5.11,0,0,0,195,224.1c2,0,4-1.1,5.86-1.95a38.22,38.22,0,0,0,8.06-4.89l1.15-.73c.77,3.3,1.25,5.86,2.89,8.55a36.18,36.18,0,0,0,8.92-5.38C221.58,218.85,221.19,218,220.9,216.9Zm-14.4-11c-1.73,1.1-3.45,2.08-4.51,2.69-1.25.61-3.75,2.56-4.71,1.59-.77-.61-.48-2.57-.19-3.79.48-1.83,1.15-3.78,2.4-4.88a25.32,25.32,0,0,1,4.8-2.94c1.35-.61,2.6-1.22,3.94-1.71.09,3.18.29,4.4.48,7.33C207.94,204.8,207.17,205.41,206.5,205.9Z"/><circle class="cls-5" cx="205.06" cy="181.18" r="1.36"/><path class="cls-3" d="M292.63,213.35a118.69,118.69,0,0,1-1.16-14.41c-.28-5.74.39-11.6.39-17.22,0-2.93.29-5.74.29-8.55a29,29,0,0,0-.68-6.48c-.48-2.2-2.3-4.52-4.12-4.64a9.19,9.19,0,0,0-5.57,1.83,43,43,0,0,0-6.73,6.48,21.76,21.76,0,0,0-2.3,3c-.1-6.59-.19-13.19-.19-19.79,0-2.93,0-6.1.09-9v-4.52a75.25,75.25,0,0,0-9.41,2.68c0,4.28-.09,8.8-.09,13.07V189.9c0,8.8-.39,17.59-.48,26.39-.1,2.19-.39,4.88-.29,7.45a87,87,0,0,0,10.85-2.94c0-9.28-.29-18.68-.38-28,.67-2.44,2.4-4.64,3.64-7,.77-1.34,3-4.64,4.61-4.88.68,7.93.39,16.48.48,24.91,0,6.11.58,13.56,2.12,19.18.19.61.38,1.1.57,1.83a41.46,41.46,0,0,0,10.08-5.62C293.49,219.09,293.3,216.65,292.63,213.35Z"/></g></svg>