<svg xmlns="http://www.w3.org/2000/svg" viewBox="0 0 432 288"><defs><style>.cls-1,.cls-4{fill:#fff;}.cls-1,.cls-10,.cls-2,.cls-4,.cls-6,.cls-7,.cls-8,.cls-9{stroke:#231f20;}.cls-2,.cls-3,.cls-8{fill:#231f20;}.cls-10,.cls-2,.cls-4,.cls-6,.cls-7,.cls-8,.cls-9{stroke-miterlimit:10;}.cls-10,.cls-2,.cls-4,.cls-9{stroke-width:0.25px;}.cls-5,.cls-6{fill:#fef195;}.cls-6,.cls-7,.cls-8{stroke-width:0.1px;}.cls-10,.cls-7,.cls-9{fill:none;}.cls-9{stroke-dasharray:3 2;}.cls-10{stroke-dasharray:2 2;}</style></defs><title>Two Bees</title><g id="Crop_Marks" data-name="Crop Marks"><rect class="cls-1" x="14.42" y="47.17" width="394.25" height="192.98"/><path class="cls-2" d="M56.16,160.89c.88.11,1.43.44,1.43,1s-.55,1-1.76,1c-6.93,0-24.43-6.83-24.43-26.53S51.32,99.59,80.26,99.59c14.64,0,26.85,2.2,37.09,4.18A32.4,32.4,0,0,1,137.71,97c7.15,0,11.11,2.75,11.11,6.49,0,3.08-3.08,6-9.24,6s-13.21-1.32-21.46-2.86c-28.29,22.67-27.07,92.44-64.27,92.44-12.88,0-18.49-11.44-18.49-12.54a.71.71,0,0,1,.66-.66c.88,0,6,10.56,18.38,10.56,31.47,0,33.23-65.92,60.2-90.35-9.8-1.76-21.13-3.63-34-3.63-27.62,0-45.78,16.62-45.78,34.78C34.81,154.61,49.56,160.34,56.16,160.89Zm65-56.46c6.82,1.32,12.77,2.31,18,2.31,4.62,0,6.49-1.43,6.49-3.41,0-2.31-3.19-3.74-7.37-3.74A32.09,32.09,0,0,0,121.2,104.43Z"/><path class="cls-2" d="M113.5,173.65a6,6,0,0,1-6.38-6.27c0-10.9,14.52-26.74,17.94-26.74a1.53,1.53,0,0,1,1.43,1.32c0,.22-.11.55-.66,1-4.19,2.64-15.41,14.85-15.41,24,0,2.86,1.1,4.18,3.41,4.18,3.74,0,9.79-5.39,15.3-11.67,5.72-6.6,7.81-10.45,8.8-10.45a1.59,1.59,0,0,1,1.43,1.65c0,1-5.06,6-5.06,11.23,0,3.63,1.76,5.5,5.06,5.5,4.95,0,13.21-8.59,13.21-18.16,0-2.42-1.21-3.85-1.21-4.4a.63.63,0,0,1,.66-.66c.88,0,3.41,2.2,3.41,5.94,0,9.9-9.57,19.92-16.62,19.92a7.68,7.68,0,0,1-7.7-8.81C125.28,167.82,117.68,173.65,113.5,173.65Z"/><path class="cls-2" d="M186.47,150.76c0,9.58-12.22,22-20.91,22a8,8,0,0,1-8.37-8.36c0-9.69,12.11-21.46,21.13-21.46C183.49,143,186.47,146.25,186.47,150.76Zm-26.31,14c0,3.41,2.1,5.61,5.51,5.61,7.15,0,17.94-11.34,17.94-19.48a5.09,5.09,0,0,0-5.18-5.39C170.84,145.48,160.16,156.15,160.16,164.74Z"/><path class="cls-2" d="M239.41,188.62c0,3.74,3.52,7.59,11.45,7.59,14.63,0,29.82-11.89,29.82-25.42,0-10.67-13-14.75-15.3-14.75-1.76,0-5.61,1.32-8.25,1.32-3,0-4-1.1-4-2.31s1.54-2.31,4-2.31c1.87,0,5.17.77,6.49.77,9.25,0,37.53-11.66,37.53-30.59,0-12.44-10.56-20.58-32.91-20.58-31.14,0-59.2,16.84-59.2,32.79,0,7.16,4.51,11,11,11,4.08,0,6.72-1.87,7.49-1.87a.52.52,0,0,1,.55.55c0,.77-3.74,3.41-9.14,3.41-6.82,0-13.2-4.18-13-13,.33-17.94,28.94-35.66,62.28-35.66,24.55,0,35.77,9.24,35.77,23.22,0,20.25-28.06,31-33.45,32,0,0,13,3.85,13,16,0,15.74-16.29,28.06-32.79,28.06-9.58,0-14.42-4.95-14.42-10,0-10.79,15.74-15.74,33.9-15.74,1.21,0,2.09.33,2.09,1s-.55.88-2.09.88C254.05,175,239.41,180,239.41,188.62ZM273.09,114c0,.66-.33,1.11-1.65,1.77-10.9,5.5-39,38.62-39,57.88,0,.66-.22,1-.77,1a2.29,2.29,0,0,1-2-2.53c0-20.36,35.32-59.43,41.93-59.43A1.45,1.45,0,0,1,273.09,114Z"/><path class="cls-2" d="M305,174.42c-5.73,0-10.57-3.52-10.57-9.79,0-10.24,13.65-21.35,22-21.35,3.42,0,5.51,2,5.51,4.73,0,6.49-15.08,12.66-24.32,14.86a12.22,12.22,0,0,0-.12,2.09c0,4.18,3,6.93,7.49,6.93,12.43,0,23.33-13.1,23.33-13.1s.55-.65,1.1-.65a.92.92,0,0,1,1,1,2.4,2.4,0,0,1-.55,1.09S317.77,174.42,305,174.42Zm-6.6-14.08c8.36-2,20.91-7.6,20.91-12.66a2.18,2.18,0,0,0-2.43-2C310.51,145.7,301.38,152.85,298.41,160.34Z"/><path class="cls-2" d="M337.47,174.42c-5.72,0-10.56-3.52-10.56-9.79,0-10.24,13.64-21.35,22-21.35,3.41,0,5.5,2,5.5,4.73,0,6.49-15.08,12.66-24.32,14.86A13.31,13.31,0,0,0,330,165c0,4.18,3,6.93,7.48,6.93,12.44,0,23.33-13.1,23.33-13.1a1.86,1.86,0,0,1,1.11-.65.92.92,0,0,1,1,1,2.39,2.39,0,0,1-.56,1.09S350.24,174.42,337.47,174.42Zm-6.6-14.08c8.36-2,20.91-7.6,20.91-12.66a2.17,2.17,0,0,0-2.42-2C343,145.7,333.84,152.85,330.87,160.34Z"/><path class="cls-2" d="M361.25,160.78a.9.9,0,0,1-1-.88,2.45,2.45,0,0,1,.55-1.11,77.74,77.74,0,0,0,9.57-13.31c1.87-3.41,3.85-6.17,4.95-6.17a2.24,2.24,0,0,1,2,1.77c0,1.21-4.95,5.06-4.95,9.46,0,4.73,4,8.47,4,15.3a3.39,3.39,0,0,1-.11,1.1,23.62,23.62,0,0,0,13.1-8.15s.55-.65,1-.65a1,1,0,0,1,1.1,1,2.4,2.4,0,0,1-.55,1.09,27.57,27.57,0,0,1-15.08,9,11.74,11.74,0,0,1-11.22,8.14c-3.85,0-6.61-2.53-6.61-4.84,0-2.86,2.1-4,6.06-4.18a67,67,0,0,0,9.35-.77,9.69,9.69,0,0,0,.22-1.87c0-5.83-4-9.69-4-14.75a85.31,85.31,0,0,1-7.26,9.24A1.91,1.91,0,0,1,361.25,160.78Zm11.44,9c-6.93,1-12.21,0-12.21,2.53,0,1.54,1.54,2.86,4.18,2.86A8.83,8.83,0,0,0,372.69,169.8Z"/><path class="cls-3" d="M368.52,120.46a17.56,17.56,0,0,1-5.53,5.42,7.84,7.84,0,0,1-.9.49,7.41,7.41,0,0,1-.86.4c-.36.15-.72.27-1.08.38a6.28,6.28,0,0,1-8.54-5.66l-.07-1a.27.27,0,0,1,0-.09,6.16,6.16,0,0,1,0-1v-.23l0-.32a3.78,3.78,0,0,1,.06-.47,17.48,17.48,0,0,1,2.83-7.21c3.92-5.91,10.23-8.62,14.1-6.06S372.44,114.54,368.52,120.46Z"/><ellipse class="cls-4" cx="369.54" cy="117.52" rx="3.81" ry="7.81" transform="translate(17.77 280.71) rotate(-42.53)"/><ellipse class="cls-4" cx="356.81" cy="109.09" rx="3.81" ry="7.81" transform="translate(134.66 408.86) rotate(-70.46)"/><path class="cls-5" d="M361.23,126.77c-.36.15-.72.27-1.08.38l-8.54-5.66-.07-1v-.1l9.7,6.42"/><path class="cls-5" d="M363,125.88a7.84,7.84,0,0,1-.9.49l-10.53-7,0-.22,0-.32.05-.47,11.33,7.5"/><ellipse class="cls-6" cx="367.04" cy="117.57" rx="2.93" ry="6" transform="translate(-7.56 208.2) rotate(-31.36)"/><ellipse class="cls-6" cx="357.74" cy="111.41" rx="2.93" ry="6" transform="translate(195.42 449.12) rotate(-81.63)"/><path class="cls-7" d="M368.13,104.8c.63-5.31-1-4.89-1-4.89"/><path class="cls-7" d="M369.26,105.55c4.65-2.65,4.9-1,4.9-1"/><circle class="cls-8" cx="366.76" cy="100.02" r="0.44"/><circle class="cls-8" cx="374.16" cy="104.92" r="0.44"/><path class="cls-3" d="M338.13,95a19.74,19.74,0,0,1,2.56,8.37,9.06,9.06,0,0,1,0,1.16,9.65,9.65,0,0,1-.05,1.08,12.52,12.52,0,0,1-.18,1.27,7.09,7.09,0,0,1-10.11,5.64l-1.08-.46-.1-.05a8.7,8.7,0,0,1-.94-.53l-.24-.13-.3-.2a2.74,2.74,0,0,1-.43-.3,19.9,19.9,0,0,1-5.78-6.58c-3.9-7-3.35-14.75,1.24-17.31S334.22,88,338.13,95Z"/><ellipse class="cls-4" cx="335.71" cy="92.44" rx="8.83" ry="4.3" transform="translate(-12.49 91.2) rotate(-15.19)"/><ellipse class="cls-4" cx="320.63" cy="100.85" rx="8.83" ry="4.3" transform="translate(17.67 246.42) rotate(-43.12)"/><path class="cls-5" d="M340.68,105.59a12.52,12.52,0,0,1-.18,1.27l-10.11,5.64-1.08-.46-.12,0,11.49-6.41"/><path class="cls-5" d="M340.69,103.35a9.06,9.06,0,0,1,0,1.16l-12.48,7-.22-.14-.3-.2-.45-.3,13.41-7.48"/><ellipse class="cls-6" cx="334.45" cy="94.98" rx="6.78" ry="3.31" transform="translate(-5.84 23.72) rotate(-4.03)"/><ellipse class="cls-6" cx="323.45" cy="101.12" rx="6.78" ry="3.31" transform="translate(52.56 304.73) rotate(-54.29)"/><path class="cls-7" d="M322.21,87.25c-5-3.38-5.43-1.53-5.43-1.53"/><path class="cls-7" d="M323.54,86.5c-.24-6,1.55-5.42,1.55-5.42"/><circle class="cls-8" cx="316.69" cy="86.15" r="0.5"/><circle class="cls-8" cx="325.44" cy="81.26" r="0.5"/><path class="cls-9" d="M134.56,141.89q.49-.58,1-1.14a41.53,41.53,0,0,1,23.29-12.46c5.83-1,12.11-.76,17.19-3.78,5.35-3.17,8.19-9.24,10.41-15.05"/><path class="cls-10" d="M186.84,107.65l-11.54-6.3a9.78,9.78,0,0,1-3.6-2.81c-1.32-1.89-1.44-4.46-1.49-6.81a3.5,3.5,0,0,1,.31-1.87,2.07,2.07,0,0,1,1.81-.75,13.25,13.25,0,0,1,9.72,4.32"/><path class="cls-10" d="M186.84,106.13l3.52-12.61a11.13,11.13,0,0,0,.62-4.41c-.27-2.1-1.67-3.64-3-5a2.15,2.15,0,0,0-1.26-.81c-.6,0-1.12.48-1.55,1a15.9,15.9,0,0,0-3.27,7.31"/><path class="cls-9" d="M189,108.19c9.42,2.75,19.58-.45,28.21-5.12a16.2,16.2,0,0,0,5.4-4.1,6.28,6.28,0,0,0,1-6.4c-1-2-4-3.06-5.72-1.62-.58,4,3.71,7.41,7.79,7.61s7.93-1.71,11.73-3.23a67.05,67.05,0,0,1,55.75,3.09c7.68,4.1,14.22,10,20.9,15.75"/><path class="cls-9" d="M314.09,114.68a72.76,72.76,0,0,0,24.75,13.87,25.71,25.71,0,0,0,7.08,1.55,10.82,10.82,0,0,0,6.88-1.86"/></g></svg>